<?xml version="1.0" encoding="UTF-8"?>
<svg id="Ebene_2" data-name="Ebene 2" xmlns="http://www.w3.org/2000/svg" viewBox="0 0 281.67 116.85">
  <defs>
    <style>
      .cls-1 {
        fill: #2d2d2c;
        stroke-width: 0px;
      }
    </style>
  </defs>
  <g id="Wortmarke_Guides">
    <g>
      <g>
        <path class="cls-1" d="M15.1,66.67v2.19h-6.23v17.09h-2.61v-17.09H0v-2.19h15.1Z"/>
        <path class="cls-1" d="M14.64,85.95v-13.63h1.37c.26,0,.44.05.54.15.1.1.17.27.2.51l.16,2.13c.47-.95,1.04-1.69,1.73-2.23.69-.53,1.49-.8,2.41-.8.38,0,.72.04,1.02.13.3.09.59.2.85.36l-.31,1.79c-.06.22-.2.34-.42.34-.13,0-.32-.04-.58-.13-.26-.09-.62-.13-1.09-.13-.83,0-1.53.24-2.09.73-.56.48-1.03,1.19-1.41,2.11v8.68h-2.4Z"/>
        <path class="cls-1" d="M34.77,85.95h-1.06c-.23,0-.42-.04-.57-.11-.14-.07-.24-.22-.28-.46l-.27-1.26c-.36.32-.71.61-1.05.87s-.7.47-1.08.65c-.38.18-.78.31-1.2.4s-.9.13-1.42.13-1.03-.07-1.49-.22-.86-.37-1.2-.67c-.34-.3-.61-.67-.81-1.13-.2-.45-.3-.99-.3-1.61,0-.54.15-1.06.44-1.56s.77-.94,1.43-1.33,1.52-.7,2.59-.95c1.07-.25,2.37-.37,3.92-.37v-1.07c0-1.07-.23-1.87-.68-2.42s-1.12-.82-2.01-.82c-.58,0-1.07.07-1.47.22s-.74.31-1.04.5c-.29.18-.54.35-.75.5s-.42.22-.63.22c-.16,0-.3-.04-.42-.13-.12-.09-.22-.19-.29-.32l-.43-.77c.75-.73,1.57-1.27,2.44-1.63.87-.36,1.83-.54,2.89-.54.76,0,1.44.13,2.03.38.59.25,1.09.6,1.49,1.05s.71.99.92,1.63c.21.64.31,1.34.31,2.1v8.72ZM28.56,84.49c.42,0,.81-.04,1.16-.13s.68-.21.99-.36c.31-.16.61-.35.89-.57.28-.22.56-.48.83-.77v-2.81c-1.1,0-2.04.07-2.81.21-.77.14-1.4.32-1.88.55-.48.23-.84.49-1.06.8-.22.31-.33.65-.33,1.03s.06.67.18.93c.12.26.27.48.47.64.2.17.43.29.7.36.27.08.56.12.87.12Z"/>
        <path class="cls-1" d="M47.34,74.74c-.07.1-.14.17-.22.23-.07.05-.17.08-.31.08s-.28-.06-.44-.17c-.16-.11-.36-.24-.6-.37-.24-.13-.54-.26-.88-.37s-.77-.17-1.27-.17c-.66,0-1.25.12-1.76.36-.51.24-.94.58-1.29,1.03-.35.45-.61.99-.78,1.63s-.26,1.35-.26,2.14.09,1.56.28,2.2c.19.64.45,1.18.79,1.61s.76.77,1.24,1c.49.23,1.04.34,1.65.34s1.06-.07,1.44-.21c.38-.14.69-.29.94-.46.25-.17.46-.32.62-.46s.32-.21.48-.21c.21,0,.36.08.46.23l.67.87c-.59.73-1.33,1.26-2.22,1.59s-1.83.5-2.81.5c-.85,0-1.64-.16-2.37-.47-.73-.31-1.37-.77-1.9-1.37-.54-.6-.96-1.33-1.27-2.2-.31-.87-.46-1.86-.46-2.97,0-1.01.14-1.95.42-2.81.28-.86.69-1.6,1.24-2.23.54-.62,1.21-1.11,2.01-1.46s1.71-.52,2.74-.52c.95,0,1.79.15,2.53.46s1.39.75,1.95,1.31l-.63.86Z"/>
        <path class="cls-1" d="M55.24,72.11c.82,0,1.57.14,2.26.41.69.27,1.29.67,1.79,1.18.5.52.9,1.15,1.18,1.91.28.76.42,1.62.42,2.59,0,.38-.04.63-.12.75s-.23.19-.46.19h-9.07c.02.86.13,1.61.35,2.25.22.64.51,1.17.89,1.59.38.43.82.74,1.35.96s1.1.32,1.75.32c.6,0,1.12-.07,1.55-.21s.81-.29,1.12-.45c.31-.16.58-.31.79-.45s.39-.21.55-.21c.2,0,.35.08.46.23l.67.87c-.3.36-.65.67-1.06.94-.41.26-.85.48-1.33.65-.47.17-.96.3-1.46.38-.5.09-1,.13-1.49.13-.94,0-1.81-.16-2.6-.48-.79-.32-1.48-.78-2.06-1.4s-1.03-1.37-1.35-2.28-.48-1.95-.48-3.12c0-.95.15-1.84.44-2.66.29-.83.71-1.54,1.26-2.15.55-.61,1.22-1.08,2-1.43.79-.35,1.68-.52,2.66-.52ZM55.3,73.87c-1.16,0-2.07.33-2.73,1-.66.67-1.08,1.59-1.24,2.78h7.41c0-.56-.08-1.07-.23-1.53s-.38-.86-.67-1.2c-.3-.34-.66-.6-1.08-.78-.43-.18-.91-.28-1.46-.28Z"/>
        <path class="cls-1" d="M73.31,85.95h-1.06c-.23,0-.42-.04-.57-.11-.14-.07-.24-.22-.28-.46l-.27-1.26c-.36.32-.71.61-1.05.87s-.7.47-1.08.65c-.38.18-.78.31-1.2.4s-.9.13-1.42.13-1.03-.07-1.49-.22-.86-.37-1.2-.67c-.34-.3-.61-.67-.81-1.13-.2-.45-.3-.99-.3-1.61,0-.54.15-1.06.44-1.56s.77-.94,1.43-1.33,1.52-.7,2.59-.95c1.07-.25,2.37-.37,3.92-.37v-1.07c0-1.07-.23-1.87-.68-2.42s-1.12-.82-2.01-.82c-.58,0-1.07.07-1.47.22s-.74.31-1.04.5c-.29.18-.54.35-.75.5s-.42.22-.63.22c-.16,0-.3-.04-.42-.13-.12-.09-.22-.19-.29-.32l-.43-.77c.75-.73,1.57-1.27,2.44-1.63.87-.36,1.83-.54,2.89-.54.76,0,1.44.13,2.03.38.59.25,1.09.6,1.49,1.05s.71.99.92,1.63c.21.64.31,1.34.31,2.1v8.72ZM67.09,84.49c.42,0,.81-.04,1.16-.13s.68-.21.99-.36c.31-.16.61-.35.89-.57.28-.22.56-.48.83-.77v-2.81c-1.1,0-2.04.07-2.81.21-.77.14-1.4.32-1.88.55-.48.23-.84.49-1.06.8-.22.31-.33.65-.33,1.03s.06.67.18.93c.12.26.27.48.47.64.2.17.43.29.7.36.27.08.56.12.87.12Z"/>
        <path class="cls-1" d="M76.44,85.95v-19.82h2.41v8.15c.57-.65,1.21-1.18,1.94-1.58.73-.4,1.57-.6,2.51-.6.79,0,1.5.15,2.14.44.64.3,1.18.74,1.63,1.33.45.59.79,1.31,1.04,2.18.24.87.36,1.86.36,2.99,0,1-.13,1.94-.4,2.81-.27.87-.66,1.61-1.16,2.25-.51.63-1.13,1.13-1.86,1.49-.73.36-1.55.54-2.47.54s-1.63-.17-2.24-.51c-.61-.34-1.15-.82-1.61-1.43l-.12,1.24c-.07.34-.28.51-.62.51h-1.55ZM82.52,74.02c-.78,0-1.46.18-2.05.54-.59.36-1.13.87-1.62,1.52v6.59c.43.59.91,1.01,1.43,1.25.53.24,1.11.36,1.76.36,1.27,0,2.25-.45,2.93-1.36.68-.91,1.02-2.2,1.02-3.88,0-.89-.08-1.65-.24-2.29-.16-.64-.38-1.16-.68-1.57-.3-.41-.66-.71-1.09-.89-.43-.19-.92-.28-1.47-.28Z"/>
        <path class="cls-1" d="M93.92,68.04c0,.23-.05.45-.14.65s-.22.38-.38.54-.34.28-.55.37c-.21.09-.43.13-.66.13s-.45-.04-.65-.13c-.2-.09-.38-.21-.54-.37-.16-.16-.28-.34-.37-.54s-.13-.42-.13-.65.05-.46.13-.67.21-.39.37-.55.34-.28.54-.37c.2-.09.42-.13.65-.13s.45.05.66.13.39.21.55.37c.16.16.28.34.38.55s.14.43.14.67ZM93.38,72.32v13.63h-2.39v-13.63h2.39Z"/>
        <path class="cls-1" d="M99.31,66.13v19.82h-2.39v-19.82h2.39Z"/>
        <path class="cls-1" d="M105.74,68.04c0,.23-.05.45-.14.65s-.22.38-.38.54-.34.28-.55.37c-.21.09-.43.13-.66.13s-.45-.04-.65-.13c-.2-.09-.38-.21-.54-.37-.16-.16-.28-.34-.37-.54s-.13-.42-.13-.65.05-.46.13-.67.21-.39.37-.55.34-.28.54-.37c.2-.09.42-.13.65-.13s.45.05.66.13.39.21.55.37c.16.16.28.34.38.55s.14.43.14.67ZM105.21,72.32v13.63h-2.39v-13.63h2.39Z"/>
        <path class="cls-1" d="M112.75,86.17c-1.08,0-1.9-.3-2.48-.9-.58-.6-.87-1.47-.87-2.6v-8.34h-1.64c-.14,0-.26-.04-.36-.13-.1-.09-.15-.22-.15-.4v-.96l2.23-.28.55-4.21c.02-.13.08-.24.17-.33.1-.09.22-.13.38-.13h1.21v4.7h3.9v1.74h-3.9v8.18c0,.57.14,1,.42,1.28s.64.42,1.08.42c.25,0,.47-.03.65-.1.18-.07.34-.14.48-.22.13-.08.25-.15.34-.22.09-.07.18-.1.25-.1.13,0,.24.08.34.23l.7,1.14c-.41.39-.91.69-1.49.91-.58.22-1.18.33-1.8.33Z"/>
        <path class="cls-1" d="M122.71,89.98c-.08.18-.18.32-.3.43-.12.11-.31.16-.56.16h-1.78l2.49-5.41-5.62-12.84h2.07c.21,0,.37.05.48.15s.2.22.26.34l3.65,8.58c.08.2.15.39.21.59.06.2.11.4.15.61.06-.21.13-.41.19-.61s.13-.4.22-.61l3.54-8.57c.05-.14.15-.26.28-.36s.27-.14.42-.14h1.91l-7.6,17.65Z"/>
        <path class="cls-1" d="M149.95,66.67v2.13h-9.26v6.4h7.49v2.04h-7.49v6.58h9.26v2.13h-11.88v-19.28h11.88Z"/>
        <path class="cls-1" d="M152.36,85.95v-13.63h1.43c.34,0,.56.17.65.5l.19,1.48c.59-.65,1.25-1.18,1.98-1.59.73-.4,1.58-.61,2.54-.61.74,0,1.4.12,1.97.37s1.04.6,1.43,1.05c.38.45.67,1,.87,1.63.2.64.3,1.34.3,2.11v8.68h-2.39v-8.68c0-1.03-.24-1.83-.71-2.4-.47-.57-1.19-.85-2.16-.85-.71,0-1.37.17-1.98.51-.61.34-1.18.8-1.7,1.39v10.04h-2.4Z"/>
        <path class="cls-1" d="M167.15,85.95v-11.59l-1.51-.17c-.19-.04-.34-.11-.46-.21s-.18-.23-.18-.41v-.98h2.15v-1.32c0-.78.11-1.47.33-2.08.22-.61.53-1.12.94-1.53.41-.42.9-.73,1.47-.95.57-.22,1.22-.32,1.94-.32.61,0,1.18.09,1.7.27l-.05,1.2c0,.18-.09.29-.23.32-.14.04-.35.05-.61.05h-.42c-.41,0-.79.05-1.12.16s-.63.28-.87.52c-.24.24-.43.56-.56.96-.13.39-.2.88-.2,1.47v1.25h3.94v1.74h-3.86v11.63h-2.41Z"/>
        <path class="cls-1" d="M180.57,72.11c1,0,1.89.17,2.7.5.8.33,1.48.8,2.04,1.41.56.61.99,1.35,1.29,2.21.3.87.45,1.83.45,2.9s-.15,2.05-.45,2.91c-.3.86-.73,1.6-1.29,2.21-.56.61-1.24,1.08-2.04,1.41-.8.33-1.7.49-2.7.49s-1.9-.16-2.7-.49-1.49-.8-2.05-1.41c-.57-.61-1-1.35-1.31-2.21-.3-.86-.46-1.83-.46-2.91s.15-2.03.46-2.9c.3-.87.74-1.6,1.31-2.21.57-.61,1.25-1.08,2.05-1.41.8-.33,1.7-.5,2.7-.5ZM180.57,84.27c1.35,0,2.35-.45,3.01-1.35s1-2.16,1-3.77-.33-2.89-1-3.79-1.67-1.36-3.01-1.36c-.68,0-1.27.12-1.78.35-.5.23-.92.57-1.26,1.01s-.59.98-.75,1.62c-.17.64-.25,1.37-.25,2.17s.08,1.53.25,2.17.42,1.17.75,1.61.76.77,1.26,1c.5.23,1.09.35,1.78.35Z"/>
        <path class="cls-1" d="M189.49,85.95v-13.63h1.37c.26,0,.44.05.54.15.1.1.17.27.2.51l.16,2.13c.47-.95,1.04-1.69,1.73-2.23.69-.53,1.49-.8,2.41-.8.38,0,.72.04,1.02.13.3.09.59.2.85.36l-.31,1.79c-.06.22-.2.34-.42.34-.13,0-.32-.04-.58-.13-.26-.09-.62-.13-1.09-.13-.83,0-1.53.24-2.09.73-.56.48-1.03,1.19-1.41,2.11v8.68h-2.4Z"/>
        <path class="cls-1" d="M208.78,74.74c-.07.1-.14.17-.22.23-.07.05-.17.08-.31.08s-.28-.06-.44-.17c-.16-.11-.36-.24-.6-.37-.24-.13-.54-.26-.88-.37s-.77-.17-1.27-.17c-.66,0-1.25.12-1.76.36-.51.24-.94.58-1.29,1.03-.35.45-.61.99-.78,1.63s-.26,1.35-.26,2.14.09,1.56.28,2.2c.19.64.45,1.18.79,1.61s.76.77,1.24,1c.49.23,1.04.34,1.65.34s1.06-.07,1.44-.21c.38-.14.69-.29.94-.46.25-.17.46-.32.62-.46s.32-.21.48-.21c.21,0,.36.08.46.23l.67.87c-.59.73-1.33,1.26-2.22,1.59s-1.83.5-2.81.5c-.85,0-1.64-.16-2.37-.47-.73-.31-1.37-.77-1.9-1.37-.54-.6-.96-1.33-1.27-2.2-.31-.87-.46-1.86-.46-2.97,0-1.01.14-1.95.42-2.81.28-.86.69-1.6,1.24-2.23.54-.62,1.21-1.11,2.01-1.46s1.71-.52,2.74-.52c.95,0,1.79.15,2.53.46s1.39.75,1.95,1.31l-.63.86Z"/>
        <path class="cls-1" d="M216.69,72.11c.82,0,1.57.14,2.26.41.69.27,1.29.67,1.79,1.18.5.52.9,1.15,1.18,1.91.28.76.42,1.62.42,2.59,0,.38-.04.63-.12.75s-.23.19-.46.19h-9.07c.02.86.13,1.61.35,2.25.22.64.51,1.17.89,1.59.38.43.82.74,1.35.96s1.1.32,1.75.32c.6,0,1.12-.07,1.55-.21s.81-.29,1.12-.45c.31-.16.58-.31.79-.45s.39-.21.55-.21c.2,0,.35.08.46.23l.67.87c-.3.36-.65.67-1.06.94-.41.26-.85.48-1.33.65-.47.17-.96.3-1.46.38-.5.09-1,.13-1.49.13-.94,0-1.81-.16-2.6-.48-.79-.32-1.48-.78-2.06-1.4s-1.03-1.37-1.35-2.28-.48-1.95-.48-3.12c0-.95.15-1.84.44-2.66.29-.83.71-1.54,1.26-2.15.55-.61,1.22-1.08,2-1.43.79-.35,1.68-.52,2.66-.52ZM216.74,73.87c-1.16,0-2.07.33-2.73,1-.66.67-1.08,1.59-1.24,2.78h7.41c0-.56-.08-1.07-.23-1.53s-.38-.86-.67-1.2c-.3-.34-.66-.6-1.08-.78-.43-.18-.91-.28-1.46-.28Z"/>
        <path class="cls-1" d="M224.81,85.95v-13.63h1.43c.34,0,.56.17.65.5l.17,1.4c.5-.62,1.07-1.13,1.69-1.52.62-.39,1.35-.59,2.17-.59.92,0,1.67.26,2.24.77.57.51.98,1.2,1.23,2.07.19-.49.44-.92.75-1.28s.66-.65,1.04-.89c.39-.23.8-.4,1.23-.51s.88-.16,1.33-.16c.72,0,1.36.11,1.92.34s1.04.56,1.43,1c.39.44.69.98.9,1.62.21.64.31,1.37.31,2.2v8.68h-2.4v-8.68c0-1.07-.23-1.88-.7-2.43-.47-.55-1.14-.83-2.03-.83-.39,0-.77.07-1.12.21-.35.14-.67.34-.94.61s-.48.61-.64,1.02c-.16.41-.24.88-.24,1.42v8.68h-2.39v-8.68c0-1.09-.22-1.91-.66-2.45s-1.08-.81-1.92-.81c-.59,0-1.14.16-1.65.48-.51.32-.97.75-1.39,1.3v10.16h-2.4Z"/>
        <path class="cls-1" d="M251.93,72.11c.82,0,1.57.14,2.26.41.69.27,1.29.67,1.79,1.18.5.52.9,1.15,1.18,1.91.28.76.42,1.62.42,2.59,0,.38-.04.63-.12.75s-.23.19-.46.19h-9.07c.02.86.13,1.61.35,2.25.22.64.51,1.17.89,1.59.38.43.82.74,1.35.96s1.1.32,1.75.32c.6,0,1.12-.07,1.55-.21s.81-.29,1.12-.45c.31-.16.58-.31.79-.45s.39-.21.55-.21c.2,0,.35.08.46.23l.67.87c-.3.36-.65.67-1.06.94-.41.26-.85.48-1.33.65-.47.17-.96.3-1.46.38-.5.09-1,.13-1.49.13-.94,0-1.81-.16-2.6-.48-.79-.32-1.48-.78-2.06-1.4-.58-.61-1.03-1.37-1.35-2.28s-.48-1.95-.48-3.12c0-.95.15-1.84.44-2.66.29-.83.71-1.54,1.26-2.15.55-.61,1.22-1.08,2-1.43.79-.35,1.68-.52,2.66-.52ZM251.98,73.87c-1.16,0-2.07.33-2.73,1-.66.67-1.08,1.59-1.24,2.78h7.41c0-.56-.08-1.07-.23-1.53s-.38-.86-.67-1.2c-.3-.34-.66-.6-1.08-.78-.43-.18-.91-.28-1.46-.28Z"/>
        <path class="cls-1" d="M260.05,85.95v-13.63h1.43c.34,0,.56.17.65.5l.19,1.48c.59-.65,1.25-1.18,1.98-1.59.73-.4,1.58-.61,2.54-.61.74,0,1.4.12,1.97.37s1.04.6,1.43,1.05c.38.45.67,1,.87,1.63.2.64.3,1.34.3,2.11v8.68h-2.39v-8.68c0-1.03-.24-1.83-.71-2.4-.47-.57-1.19-.85-2.16-.85-.71,0-1.37.17-1.98.51-.61.34-1.18.8-1.7,1.39v10.04h-2.4Z"/>
        <path class="cls-1" d="M278.37,86.17c-1.08,0-1.9-.3-2.48-.9-.58-.6-.87-1.47-.87-2.6v-8.34h-1.64c-.14,0-.26-.04-.36-.13-.1-.09-.15-.22-.15-.4v-.96l2.23-.28.55-4.21c.02-.13.08-.24.17-.33.1-.09.22-.13.38-.13h1.21v4.7h3.9v1.74h-3.9v8.18c0,.57.14,1,.42,1.28s.64.42,1.08.42c.25,0,.47-.03.65-.1.18-.07.34-.14.48-.22.13-.08.25-.15.34-.22.09-.07.18-.1.25-.1.13,0,.24.08.34.23l.7,1.14c-.41.39-.91.69-1.49.91-.58.22-1.18.33-1.8.33Z"/>
        <path class="cls-1" d="M55.67,102.79c1,0,1.89.17,2.7.5.8.33,1.48.8,2.04,1.41.56.61.99,1.35,1.29,2.21.3.87.45,1.83.45,2.9s-.15,2.05-.45,2.91c-.3.86-.73,1.6-1.29,2.21-.56.61-1.24,1.08-2.04,1.41-.8.33-1.7.49-2.7.49s-1.9-.16-2.7-.49-1.49-.8-2.05-1.41c-.57-.61-1-1.35-1.31-2.21-.3-.86-.46-1.83-.46-2.91s.15-2.03.46-2.9c.3-.87.74-1.6,1.31-2.21.57-.61,1.25-1.08,2.05-1.41.8-.33,1.7-.5,2.7-.5ZM55.67,114.95c1.35,0,2.35-.45,3.01-1.35s1-2.16,1-3.77-.33-2.89-1-3.79-1.67-1.36-3.01-1.36c-.68,0-1.27.12-1.78.35-.5.23-.92.57-1.26,1.01s-.59.98-.75,1.62c-.17.64-.25,1.37-.25,2.17s.08,1.53.25,2.17.42,1.17.75,1.61.76.77,1.26,1c.5.23,1.09.35,1.78.35Z"/>
        <path class="cls-1" d="M64.88,116.63v-11.59l-1.51-.17c-.19-.04-.34-.11-.46-.21s-.18-.23-.18-.41v-.98h2.15v-1.32c0-.78.11-1.47.33-2.08.22-.61.53-1.12.94-1.53.41-.42.9-.73,1.47-.95.57-.22,1.22-.32,1.94-.32.61,0,1.18.09,1.7.27l-.05,1.2c0,.18-.09.29-.23.32-.14.04-.35.05-.61.05h-.42c-.41,0-.79.05-1.12.16s-.63.28-.87.52c-.24.24-.43.56-.56.96-.13.39-.2.88-.2,1.47v1.25h3.94v1.74h-3.86v11.63h-2.41Z"/>
        <path class="cls-1" d="M95.7,107c0,1.44-.23,2.76-.69,3.94-.46,1.18-1.1,2.2-1.94,3.04-.83.84-1.83,1.5-3,1.96-1.17.46-2.46.69-3.88.69h-7.21v-19.28h7.21c1.42,0,2.71.23,3.88.69,1.17.46,2.17,1.12,3,1.96.83.85,1.48,1.86,1.94,3.05.46,1.18.69,2.5.69,3.94ZM93.02,107c0-1.18-.16-2.24-.48-3.18-.32-.93-.78-1.72-1.37-2.37-.59-.65-1.31-1.14-2.15-1.48-.84-.34-1.78-.51-2.81-.51h-4.59v15.06h4.59c1.03,0,1.97-.17,2.81-.51.84-.34,1.56-.83,2.15-1.47.59-.64,1.05-1.43,1.37-2.36.32-.93.48-1.99.48-3.18Z"/>
        <path class="cls-1" d="M108.02,116.63h-1.06c-.23,0-.42-.04-.57-.11-.14-.07-.24-.22-.28-.46l-.27-1.26c-.36.32-.71.61-1.05.87s-.7.47-1.08.65c-.38.18-.78.31-1.2.4s-.9.13-1.42.13-1.03-.07-1.49-.22-.86-.37-1.2-.67c-.34-.3-.61-.67-.81-1.13-.2-.45-.3-.99-.3-1.61,0-.54.15-1.06.44-1.56s.77-.94,1.43-1.33,1.52-.7,2.59-.95c1.07-.25,2.37-.37,3.92-.37v-1.07c0-1.07-.23-1.87-.68-2.42s-1.12-.82-2.01-.82c-.58,0-1.07.07-1.47.22s-.74.31-1.04.5c-.29.18-.54.35-.75.5s-.42.22-.63.22c-.16,0-.3-.04-.42-.13-.12-.09-.22-.19-.29-.32l-.43-.77c.75-.73,1.57-1.27,2.44-1.63.87-.36,1.83-.54,2.89-.54.76,0,1.44.13,2.03.38.59.25,1.09.6,1.49,1.05s.71.99.92,1.63c.21.64.31,1.34.31,2.1v8.72ZM101.8,115.16c.42,0,.81-.04,1.16-.13s.68-.21.99-.36c.31-.16.61-.35.89-.57.28-.22.56-.48.83-.77v-2.81c-1.1,0-2.04.07-2.81.21-.77.14-1.4.32-1.88.55-.48.23-.84.49-1.06.8-.22.31-.33.65-.33,1.03s.06.67.18.93c.12.26.27.48.47.64.2.17.43.29.7.36.27.08.56.12.87.12Z"/>
        <path class="cls-1" d="M115,116.85c-1.08,0-1.9-.3-2.48-.9-.58-.6-.87-1.47-.87-2.6v-8.34h-1.64c-.14,0-.26-.04-.36-.13-.1-.09-.15-.22-.15-.4v-.96l2.23-.28.55-4.21c.02-.13.08-.24.17-.33.1-.09.22-.13.38-.13h1.21v4.7h3.9v1.74h-3.9v8.18c0,.57.14,1,.42,1.28s.64.42,1.08.42c.25,0,.47-.03.65-.1.18-.07.34-.14.48-.22.13-.08.25-.15.34-.22.09-.07.18-.1.25-.1.13,0,.24.08.34.23l.7,1.14c-.41.39-.91.69-1.49.91-.58.22-1.18.33-1.8.33Z"/>
        <path class="cls-1" d="M130.4,116.63h-1.06c-.23,0-.42-.04-.57-.11-.14-.07-.24-.22-.28-.46l-.27-1.26c-.36.32-.71.61-1.05.87s-.7.47-1.08.65c-.38.18-.78.31-1.2.4s-.9.13-1.42.13-1.03-.07-1.49-.22-.86-.37-1.2-.67c-.34-.3-.61-.67-.81-1.13-.2-.45-.3-.99-.3-1.61,0-.54.15-1.06.44-1.56s.77-.94,1.43-1.33,1.52-.7,2.59-.95c1.07-.25,2.37-.37,3.92-.37v-1.07c0-1.07-.23-1.87-.68-2.42s-1.12-.82-2.01-.82c-.58,0-1.07.07-1.47.22s-.74.31-1.04.5c-.29.18-.54.35-.75.5s-.42.22-.63.22c-.16,0-.3-.04-.42-.13-.12-.09-.22-.19-.29-.32l-.43-.77c.75-.73,1.57-1.27,2.44-1.63.87-.36,1.83-.54,2.89-.54.76,0,1.44.13,2.03.38.59.25,1.09.6,1.49,1.05s.71.99.92,1.63c.21.64.31,1.34.31,2.1v8.72ZM124.19,115.16c.42,0,.81-.04,1.16-.13s.68-.21.99-.36c.31-.16.61-.35.89-.57.28-.22.56-.48.83-.77v-2.81c-1.1,0-2.04.07-2.81.21-.77.14-1.4.32-1.88.55-.48.23-.84.49-1.06.8-.22.31-.33.65-.33,1.03s.06.67.18.93c.12.26.27.48.47.64.2.17.43.29.7.36.27.08.56.12.87.12Z"/>
        <path class="cls-1" d="M137.38,116.85c-1.08,0-1.9-.3-2.48-.9-.58-.6-.87-1.47-.87-2.6v-8.34h-1.64c-.14,0-.26-.04-.36-.13-.1-.09-.15-.22-.15-.4v-.96l2.23-.28.55-4.21c.02-.13.08-.24.17-.33.1-.09.22-.13.38-.13h1.21v4.7h3.9v1.74h-3.9v8.18c0,.57.14,1,.42,1.28s.64.42,1.08.42c.25,0,.47-.03.65-.1.18-.07.34-.14.48-.22.13-.08.25-.15.34-.22.09-.07.18-.1.25-.1.13,0,.24.08.34.23l.7,1.14c-.41.39-.91.69-1.49.91-.58.22-1.18.33-1.8.33Z"/>
        <path class="cls-1" d="M142.61,116.63v-13.63h1.37c.26,0,.44.05.54.15.1.1.17.27.2.51l.16,2.13c.47-.95,1.04-1.69,1.73-2.23.69-.53,1.49-.8,2.41-.8.38,0,.72.04,1.02.13.3.09.59.2.85.36l-.31,1.79c-.06.22-.2.34-.42.34-.13,0-.32-.04-.58-.13-.26-.09-.62-.13-1.09-.13-.83,0-1.53.24-2.09.73-.56.48-1.03,1.19-1.41,2.11v8.68h-2.4Z"/>
        <path class="cls-1" d="M162.74,116.63h-1.06c-.23,0-.42-.04-.57-.11-.14-.07-.24-.22-.28-.46l-.27-1.26c-.36.32-.71.61-1.05.87s-.7.47-1.08.65c-.38.18-.78.31-1.2.4s-.9.13-1.42.13-1.03-.07-1.49-.22-.86-.37-1.2-.67c-.34-.3-.61-.67-.81-1.13-.2-.45-.3-.99-.3-1.61,0-.54.15-1.06.44-1.56s.77-.94,1.43-1.33,1.52-.7,2.59-.95c1.07-.25,2.37-.37,3.92-.37v-1.07c0-1.07-.23-1.87-.68-2.42s-1.12-.82-2.01-.82c-.58,0-1.07.07-1.47.22s-.74.31-1.04.5c-.29.18-.54.35-.75.5s-.42.22-.63.22c-.16,0-.3-.04-.42-.13-.12-.09-.22-.19-.29-.32l-.43-.77c.75-.73,1.57-1.27,2.44-1.63.87-.36,1.83-.54,2.89-.54.76,0,1.44.13,2.03.38.59.25,1.09.6,1.49,1.05s.71.99.92,1.63c.21.64.31,1.34.31,2.1v8.72ZM156.52,115.16c.42,0,.81-.04,1.16-.13s.68-.21.99-.36c.31-.16.61-.35.89-.57.28-.22.56-.48.83-.77v-2.81c-1.1,0-2.04.07-2.81.21-.77.14-1.4.32-1.88.55-.48.23-.84.49-1.06.8-.22.31-.33.65-.33,1.03s.06.67.18.93c.12.26.27.48.47.64.2.17.43.29.7.36.27.08.56.12.87.12Z"/>
        <path class="cls-1" d="M165.83,116.63v-13.63h1.43c.34,0,.56.17.65.5l.19,1.48c.59-.65,1.25-1.18,1.98-1.59.73-.4,1.58-.61,2.54-.61.74,0,1.4.12,1.97.37s1.04.6,1.43,1.05c.38.45.67,1,.87,1.63.2.64.3,1.34.3,2.11v8.68h-2.39v-8.68c0-1.03-.24-1.83-.71-2.4-.47-.57-1.19-.85-2.16-.85-.71,0-1.37.17-1.98.51-.61.34-1.18.8-1.7,1.39v10.04h-2.4Z"/>
        <path class="cls-1" d="M188.05,105.25c-.11.2-.27.3-.5.3-.13,0-.29-.05-.46-.15-.17-.1-.38-.21-.63-.33-.25-.12-.54-.23-.88-.34s-.74-.15-1.21-.15c-.4,0-.77.05-1.09.15s-.6.24-.83.42c-.23.18-.4.39-.52.63-.12.24-.18.5-.18.77,0,.35.1.64.3.87.2.23.47.44.8.61.33.17.71.32,1.13.45.42.13.85.27,1.3.42s.88.31,1.3.49c.42.18.8.4,1.13.67.33.27.6.6.8.99.2.39.3.86.3,1.41,0,.63-.11,1.21-.34,1.74-.22.53-.56,1-1,1.39-.44.39-.98.7-1.61.92-.64.22-1.37.34-2.21.34-.95,0-1.81-.15-2.58-.46-.77-.31-1.43-.71-1.96-1.19l.57-.92c.07-.12.16-.21.26-.27.1-.06.23-.09.39-.09s.33.06.51.19c.18.13.4.26.65.42.26.15.56.29.93.42.36.13.82.19,1.37.19.47,0,.88-.06,1.22-.18.35-.12.64-.28.88-.49.23-.21.41-.44.52-.71s.17-.56.17-.86c0-.38-.1-.69-.3-.94-.2-.25-.47-.46-.8-.63-.33-.17-.71-.33-1.14-.46s-.86-.27-1.31-.41-.88-.31-1.31-.49c-.43-.18-.81-.41-1.14-.69-.33-.28-.6-.62-.8-1.03-.2-.41-.3-.9-.3-1.49,0-.52.11-1.02.32-1.5.22-.48.53-.9.94-1.26.41-.36.92-.65,1.52-.87.6-.22,1.29-.32,2.06-.32.9,0,1.7.14,2.41.42.71.28,1.33.67,1.85,1.16l-.54.88Z"/>
        <path class="cls-1" d="M192.26,116.63v-11.59l-1.51-.17c-.19-.04-.34-.11-.46-.21s-.18-.23-.18-.41v-.98h2.15v-1.32c0-.78.11-1.47.33-2.08.22-.61.53-1.12.94-1.53.41-.42.9-.73,1.47-.95.57-.22,1.22-.32,1.94-.32.61,0,1.18.09,1.7.27l-.05,1.2c0,.18-.09.29-.23.32-.14.04-.35.05-.61.05h-.42c-.41,0-.79.05-1.12.16s-.63.28-.87.52c-.24.24-.43.56-.56.96-.13.39-.2.88-.2,1.47v1.25h3.94v1.74h-3.86v11.63h-2.41Z"/>
        <path class="cls-1" d="M205.56,102.79c.82,0,1.57.14,2.26.41.69.27,1.29.67,1.79,1.18.5.52.9,1.15,1.18,1.91.28.76.42,1.62.42,2.59,0,.38-.04.63-.12.75s-.23.19-.46.19h-9.07c.02.86.13,1.61.35,2.25.22.64.51,1.17.89,1.59.38.43.82.74,1.35.96s1.1.32,1.75.32c.6,0,1.12-.07,1.55-.21s.81-.29,1.12-.45c.31-.16.58-.31.79-.45s.39-.21.55-.21c.2,0,.35.08.46.23l.67.87c-.3.36-.65.67-1.06.94-.41.26-.85.48-1.33.65-.47.17-.96.3-1.46.38-.5.09-1,.13-1.49.13-.94,0-1.81-.16-2.6-.48-.79-.32-1.48-.78-2.06-1.4s-1.03-1.37-1.35-2.28-.48-1.95-.48-3.12c0-.95.15-1.84.44-2.66.29-.83.71-1.54,1.26-2.15.55-.61,1.22-1.08,2-1.43.79-.35,1.68-.52,2.66-.52ZM205.62,104.55c-1.16,0-2.07.33-2.73,1-.66.67-1.08,1.59-1.24,2.78h7.41c0-.56-.08-1.07-.23-1.53s-.38-.86-.67-1.2c-.3-.34-.66-.6-1.08-.78-.43-.18-.91-.28-1.46-.28Z"/>
        <path class="cls-1" d="M213.68,116.63v-13.63h1.37c.26,0,.44.05.54.15.1.1.17.27.2.51l.16,2.13c.47-.95,1.04-1.69,1.73-2.23.69-.53,1.49-.8,2.41-.8.38,0,.72.04,1.02.13.3.09.59.2.85.36l-.31,1.79c-.06.22-.2.34-.42.34-.13,0-.32-.04-.58-.13-.26-.09-.62-.13-1.09-.13-.83,0-1.53.24-2.09.73-.56.48-1.03,1.19-1.41,2.11v8.68h-2.4Z"/>
        <path class="cls-1" d="M231.84,105.25c-.11.2-.27.3-.5.3-.13,0-.29-.05-.46-.15-.17-.1-.38-.21-.63-.33-.25-.12-.54-.23-.88-.34s-.74-.15-1.21-.15c-.4,0-.77.05-1.09.15s-.6.24-.83.42c-.23.18-.4.39-.52.63-.12.24-.18.5-.18.77,0,.35.1.64.3.87.2.23.47.44.8.61.33.17.71.32,1.13.45.42.13.85.27,1.3.42s.88.31,1.3.49c.42.18.8.4,1.13.67.33.27.6.6.8.99.2.39.3.86.3,1.41,0,.63-.11,1.21-.34,1.74-.22.53-.56,1-1,1.39-.44.39-.98.7-1.61.92-.64.22-1.37.34-2.21.34-.95,0-1.81-.15-2.58-.46-.77-.31-1.43-.71-1.96-1.19l.57-.92c.07-.12.16-.21.26-.27.1-.06.23-.09.39-.09s.33.06.51.19c.18.13.4.26.65.42.26.15.56.29.93.42.36.13.82.19,1.37.19.47,0,.88-.06,1.22-.18.35-.12.64-.28.88-.49.23-.21.41-.44.52-.71s.17-.56.17-.86c0-.38-.1-.69-.3-.94-.2-.25-.47-.46-.8-.63-.33-.17-.71-.33-1.14-.46s-.86-.27-1.31-.41-.88-.31-1.31-.49c-.43-.18-.81-.41-1.14-.69-.33-.28-.6-.62-.8-1.03-.2-.41-.3-.9-.3-1.49,0-.52.11-1.02.32-1.5.22-.48.53-.9.94-1.26.41-.36.92-.65,1.52-.87.6-.22,1.29-.32,2.06-.32.9,0,1.7.14,2.41.42.71.28,1.33.67,1.85,1.16l-.54.88Z"/>
      </g>
      <g>
        <g>
          <path class="cls-1" d="M72.01.81v5.36h-15.22v41.74h-6.38V6.17h-15.28V.81h36.87Z"/>
          <path class="cls-1" d="M148.12.81v5.19h-22.61v15.64h18.3v5h-18.3v16.07h22.61v5.19h-29.02V.81h29.02Z"/>
          <path class="cls-1" d="M160.34,1.02c.27.14.59.43.94.87l27.28,35.49c-.07-.57-.11-1.12-.13-1.66s-.03-1.06-.03-1.56V.81h5.59v47.1h-3.22c-.5,0-.93-.09-1.26-.26-.34-.18-.67-.47-1-.89l-27.24-35.46c.04.55.08,1.08.1,1.61.02.53.03,1.01.03,1.45v33.56h-5.59V.81h3.29c.57,0,.99.07,1.26.21Z"/>
          <path class="cls-1" d="M244.59,24.37c0,3.53-.56,6.74-1.68,9.63-1.12,2.89-2.69,5.37-4.73,7.43-2.04,2.06-4.48,3.65-7.33,4.78-2.85,1.13-6,1.69-9.46,1.69h-17.62V.81h17.62c3.46,0,6.62.57,9.46,1.69,2.85,1.13,5.29,2.73,7.33,4.8,2.04,2.07,3.61,4.55,4.73,7.44,1.12,2.89,1.68,6.1,1.68,9.63ZM238.05,24.37c0-2.89-.39-5.48-1.18-7.76-.79-2.28-1.91-4.21-3.35-5.78-1.45-1.58-3.2-2.78-5.26-3.61-2.06-.83-4.35-1.25-6.87-1.25h-11.21v36.78h11.21c2.52,0,4.81-.42,6.87-1.25,2.06-.83,3.81-2.03,5.26-3.6,1.45-1.57,2.56-3.49,3.35-5.77.79-2.28,1.18-4.86,1.18-7.76Z"/>
        </g>
        <path class="cls-1" d="M110.29,47.89h-6.42l-8-19.22-2.12-5.15c2.12-.27,4.02-1.3,5.4-2.77,1.55-1.62,2.5-3.82,2.5-6.22,0-5-4.07-9.07-9.1-9.07s-9.07,4.07-9.07,9.07c0,2.42.97,4.65,2.52,6.27,1.37,1.45,3.22,2.42,5.3,2.7l-2.15,5.15-7.92,19.25h-6.42l9-21.77c-3.5-2.65-5.77-6.87-5.77-11.6,0-8.02,6.5-14.52,14.52-14.52s14.55,6.5,14.55,14.52c0,4.72-2.25,8.9-5.75,11.55l8.95,21.82Z"/>
      </g>
    </g>
  </g>
</svg>