<?xml version="1.0" encoding="UTF-8"?>
<svg id="Ebene_2" data-name="Ebene 2" xmlns="http://www.w3.org/2000/svg" viewBox="0 0 35.49 47.89">
  <defs>
    <style>
      .cls-1 {
        fill: #f2f4f6;
        stroke-width: 0px;
      }
    </style>
  </defs>
  <g id="Wortmarke_Guides">
    <path class="cls-1" d="M35.49,47.89h-6.42l-8-19.22-2.12-5.15c2.12-.27,4.02-1.3,5.4-2.77,1.55-1.62,2.5-3.82,2.5-6.22,0-5-4.07-9.07-9.1-9.07s-9.07,4.07-9.07,9.07c0,2.42.97,4.65,2.52,6.27,1.37,1.45,3.22,2.42,5.3,2.7l-2.15,5.15-7.92,19.25H0l9-21.77c-3.5-2.65-5.77-6.87-5.77-11.6C3.22,6.5,9.72,0,17.75,0s14.55,6.5,14.55,14.52c0,4.72-2.25,8.9-5.75,11.55l8.95,21.82Z"/>
  </g>
</svg>