<svg xmlns="http://www.w3.org/2000/svg" width="610.81985" height="489.57062"
     viewBox="0 0 610.81985 489.57062"><path d="m15.17983,488.38062c0,.66.53,1.19,1.19,1.19h593.26001c.65997,0,1.19-.53,1.19-1.19s-.53003-1.19-1.19-1.19H16.36983c-.66,0-1.19.53-1.19,1.19Z" fill="#2f2e43" stroke-width="0"/><path d="m322.81828,370.94498c-1.62896,9.87394-10.22129,17.43042-20.54927,17.43042s-18.9203-7.55648-20.54927-17.43042h-52.57347v113.93544h146.24548v-113.93544h-52.57347Z" fill="#b6b3c5" stroke-width="0"/><rect x="231.69705" y="484.45538" width="14.4545" height="2.55079" fill="#b6b3c5" stroke-width="0"/><rect x="359.66185" y="484.88051" width="14.4545" height="2.55079" fill="#b6b3c5" stroke-width="0"/><rect x="229.57119" y="475.854" width="146.24591" height="3.96619" fill="#2f2e41" stroke-width="0"/><path d="m596.38474,373.92091H8.15307c-4.49565,0-8.15307-3.65763-8.15307-8.15307V30.0645c0-4.49544,3.65742-8.15307,8.15307-8.15307h588.23167c4.49565,0,8.15328,3.65763,8.15328,8.15307v335.70334c0,4.49544-3.65763,8.15307-8.15328,8.15307Z" fill="#2f2e41" stroke-width="0"/><rect x="14.87962" y="36.36602" width="575.62903" height="324.80102" fill="#fff" stroke-width="0"/><path d="m522.12121,161.10268h-31.40942c-2.72925,0-4.94971-2.22021-4.94971-4.94971s2.22046-4.94971,4.94971-4.94971h31.40942c2.72925,0,4.94971,2.22021,4.94971,4.94971s-2.22046,4.94971-4.94971,4.94971Z" fill="#d1d1d2" stroke-width="0"/><path d="m558.2423,161.10268h-14.65771c-2.72925,0-4.94971-2.22021-4.94971-4.94971s2.22046-4.94971,4.94971-4.94971h14.65771c2.72925,0,4.94971,2.22021,4.94971,4.94971s-2.22046,4.94971-4.94971,4.94971Z" fill="#d1d1d2" stroke-width="0"/><path d="m207.6466,164.88296h-95.60376c-4.88037,0-8.85083-3.9707-8.85083-8.85107s3.97046-8.85107,8.85083-8.85107h95.60376c4.88062,0,8.85107,3.9707,8.85107,8.85107s-3.97046,8.85107-8.85107,8.85107Z" fill="#000000" stroke-width="0"/><path d="m155.81335,188.49575h-46.07422c-2.97485,0-5.39526-2.42041-5.39526-5.39502,0-2.9751,2.42041-5.39551,5.39526-5.39551h46.07422c2.97485,0,5.39526,2.42041,5.39526,5.39551,0,2.97461-2.42041,5.39502-5.39526,5.39502Z" fill="#d1d1d2" stroke-width="0"/><path d="m409.79675,209.80532H108.58727c-2.97485,0-5.39526-2.42041-5.39526-5.39551s2.42041-5.39551,5.39526-5.39551h301.20947c2.97485,0,5.39526,2.42041,5.39526,5.39551s-2.42041,5.39551-5.39526,5.39551Z" fill="#d1d1d2" stroke-width="0"/><path d="m383.88,224.20327H108.58727c-2.97485,0-5.39526-2.42041-5.39526-5.39551,0-2.97461,2.42041-5.39502,5.39526-5.39502h275.29272c2.97485,0,5.39526,2.42041,5.39526,5.39502,0,2.9751-2.42041,5.39551-5.39526,5.39551Z" fill="#d1d1d2" stroke-width="0"/><polygon points="557.3418 432.03741 543.52488 446.54549 528.79946 432.9325 542.61638 418.42443 557.3418 432.03741" fill="#ed9da0" stroke-width="0"/><path d="m568.37828,446.89654l-29.36998,30.83913c-2.51029,2.63586-5.64561,4.71841-9.06708,6.0225l-8.18831,3.12104c-1.69302.64532-3.64239.27152-4.96618-.95226-1.55248-1.4352-1.9454-3.73444-.9555-5.59137l7.87618-14.77439,8.40469-29.96186.09142.0563c2.28636,1.40797,5.75424,3.52058,6.00144,3.61003,4.35229.15413,7.46798-.94048,9.26147-3.25263,3.12825-4.03295,1.1436-10.47122,1.12319-10.53582l-.0156-.04942.03968-.03397c.91186-.77861,1.87235-1.09015,2.85488-.92602,2.08576.34851,3.57774,2.69144,3.79609,3.05188,1.95729-.08245,7.96683,4.62411,8.45043,5.00551,2.95043-.00791,5.11335.69168,6.42839,2.07965,1.14975,1.21342,1.65035,2.93583,1.48814,5.11937-.1951,2.62712-1.35051,5.1743-3.25335,7.17233Z" fill="#090814" stroke-width="0"/><rect x="521.19772" y="448.74102" width="20.19271" height="19.89466" fill="#ed9da0" stroke-width="0"/><path d="m537.9439,486.73258h-42.92269c-3.66865,0-7.35544-.82768-10.66185-2.3936l-7.91297-3.74756c-1.6361-.77484-2.69329-2.4312-2.69329-4.21969,0-2.09747,1.43298-3.95303,3.48476-4.51242l16.32485-4.45054,27.92779-14.46289.02089.1042c.52231,2.60611,1.33153,6.54329,1.43447,6.7821,2.86399,3.2325,5.8061,4.72207,8.74468,4.42857,5.12558-.51197,8.533-6.34331,8.56684-6.40218l.02591-.04502.05229.00526c1.20024.12238,2.08806.59931,2.63887,1.41755,1.16923,1.73705.45596,4.41216.33857,4.81568,1.40031,1.34986,2.0287,8.88807,2.0773,9.49651,2.0247,2.11441,2.98687,4.14713,2.85936,6.04168-.11142,1.65636-1.04376,3.19459-2.77094,4.57215-2.07801,1.65744-4.75395,2.57022-7.53486,2.57022Z" fill="#090814" stroke-width="0"/><polygon points="543.78764 198.18147 472.23504 198.21632 448.38417 347.00736 519.93677 432.05072 543.78764 410.78988 487.24072 347.00736 543.78764 198.18147" fill="#090814" stroke-width="0"/><polygon points="501.49583 220.11469 543.78764 198.18147 543.78764 453.31156 519.93677 453.96652 501.49583 220.11469" fill="#090814" stroke-width="0"/><path d="m459.13337,257.84794l.50385-23.22496-13.56028-.29418-.50385,23.22496c-2.53,2.34865-4.20012,5.99798-4.28988,10.13548-.15706,7.23954,4.57252,13.21364,10.56385,13.34362,5.99133.12998,10.97555-5.63338,11.1326-12.87293.08976-4.1375-1.42063-7.85583-3.84629-10.31199Z" fill="#ed9da0" stroke-width="0"/><path d="m523.43608,31.03003s19.46513-.04207,12.19353-18.79784c-7.2716-18.75577-20.81174-10.35779-20.81174-10.35779,0,0-5.70536,3.01366-4.5291,9.73748" fill="#090814" stroke-width="0"/><path d="m525.3842,40.02662c0-14.38025-11.65746-26.03763-26.03754-26.03763s-26.03772,11.65737-26.03772,26.03763c0,11.6623,7.66783,21.53259,18.23664,24.84743l5.03369,33.26563,25.66039-21.3836s-5.54354-7.06083-8.51633-15.02245c7.02635-4.66298,11.66087-12.64233,11.66087-21.70702Z" fill="#ed9da0" stroke-width="0"/><path d="m511.85627,62.02208s3.45773-13.25664-2.19606-19.35213c-5.6409-6.0816-6.36957,3.38112-6.36957,3.38112l-4.07028-.88484s.70788-9.20238-7.25572-10.7951l5.1321-10.97207s-19.64839,3.81501-20.18995,1.912c-4.26122-14.97371,36.39041-27.76478,47.62013-4.92047,17.46591,35.53044-12.67063,41.6315-12.67063,41.6315Z" fill="#090814" stroke-width="0"/><path d="m488.85799,85.21825h-.00003c-18.90326,3.69375-33.0921,19.43311-34.81262,38.61688l-11.76634,131.19472h20.64802l25.93097-169.81159Z" fill="#000000" stroke-width="0"/><polyline points="469.33436 189.7459 466.11864 226.78903 553.4084 201.11558 542.77225 174.34183 562.57749 128.86313 522.14834 70.91446 489.87313 73.11504 477.40316 89.25265" fill="#000000" stroke-width="0"/><path d="m540.5188,224.92529l12.17487-19.78447-11.55149-7.1085-12.17487,19.78447c-3.37019.74757-6.65594,3.05208-8.82488,6.57666-3.79508,6.16709-2.73415,13.7125,2.36964,16.85325,5.10379,3.14075,12.31767.68745,16.11275-5.47964,2.16894-3.52458,2.74533-7.49636,1.89399-10.84176Z" fill="#ed9da0" stroke-width="0"/><path d="m515.54659,71.64799l7.03843-.29198,12.03331,9.09431c14.25886,2.43159,18.39403,3.11332,22.76287,12.53204,1.83579,3.95777,3.05281,8.17407,3.73324,12.48349l10.18023,64.47481-25.58831,61.6163-16.95628-19.07171,18.12649-48.17314-3.01123-11.52302" fill="#000000" stroke-width="0"/></svg>