<?xml version="1.0" encoding="UTF-8"?>
<svg id="Ebene_2" data-name="Ebene 2" xmlns="http://www.w3.org/2000/svg" viewBox="0 0 209.45 47.9">
  <defs>
    <style>
      .cls-1 {
        fill: #f2f4f6;
        stroke-width: 0px;
      }
    </style>
  </defs>
  <g id="Wortmarke_Guides">
    <g>
      <g>
        <path class="cls-1" d="M36.87.81v5.36h-15.22v41.74h-6.38V6.17H0V.81h36.87Z"/>
        <path class="cls-1" d="M112.98.81v5.19h-22.61v15.64h18.3v5h-18.3v16.07h22.61v5.19h-29.02V.81h29.02Z"/>
        <path class="cls-1" d="M125.21,1.02c.27.14.59.43.94.87l27.28,35.49c-.07-.57-.11-1.12-.13-1.66s-.03-1.06-.03-1.56V.81h5.59v47.1h-3.22c-.5,0-.93-.09-1.26-.26-.34-.18-.67-.47-1-.89l-27.24-35.46c.04.55.08,1.08.1,1.61.02.53.03,1.01.03,1.45v33.56h-5.59V.81h3.29c.57,0,.99.07,1.26.21Z"/>
        <path class="cls-1" d="M209.45,24.37c0,3.53-.56,6.74-1.68,9.63-1.12,2.89-2.69,5.37-4.73,7.43-2.04,2.06-4.48,3.65-7.33,4.78-2.85,1.13-6,1.69-9.46,1.69h-17.62V.81h17.62c3.46,0,6.62.57,9.46,1.69,2.85,1.13,5.29,2.73,7.33,4.8,2.04,2.07,3.61,4.55,4.73,7.44,1.12,2.89,1.68,6.1,1.68,9.63ZM202.91,24.37c0-2.89-.39-5.48-1.18-7.76-.79-2.28-1.91-4.21-3.35-5.78-1.45-1.58-3.2-2.78-5.26-3.61-2.06-.83-4.35-1.25-6.87-1.25h-11.21v36.78h11.21c2.52,0,4.81-.42,6.87-1.25,2.06-.83,3.81-2.03,5.26-3.6,1.45-1.57,2.56-3.49,3.35-5.77.79-2.28,1.18-4.86,1.18-7.76Z"/>
      </g>
      <path class="cls-1" d="M75.16,47.89h-6.42l-8-19.22-2.12-5.15c2.12-.27,4.02-1.3,5.4-2.77,1.55-1.62,2.5-3.82,2.5-6.22,0-5-4.07-9.07-9.1-9.07s-9.07,4.07-9.07,9.07c0,2.42.97,4.65,2.52,6.27,1.37,1.45,3.22,2.42,5.3,2.7l-2.15,5.15-7.92,19.25h-6.42l9-21.77c-3.5-2.65-5.77-6.87-5.77-11.6,0-8.02,6.5-14.52,14.52-14.52s14.55,6.5,14.55,14.52c0,4.72-2.25,8.9-5.75,11.55l8.95,21.82Z"/>
    </g>
  </g>
</svg>